# xmcd
#
# Track frame offsets:
#	150
#	3084
#	15867
#	28547
#	40833
#	57455
#	71493
#	91232
#	107670
#	125323
#	137322
#	154255
#	166880
#
# Disc length: 2434 seconds
#
# Revision: 1
# Processed by: cddbd v1.5.2PL0 Copyright (c) Steve Scherf et al.
# Submitted via: audiograbber 1.83.01
#
DISCID=9009800d
DTITLE=Sharron Kay King - One Step At A Time
DYEAR=2004
DGENRE=Southern Gospel
TTITLE0=My Best Friend
TTITLE1=One Step At A Time
TTITLE2=Two More Hands
TTITLE3=Beyond The Sunset
TTITLE4=Look What The Lord Has Done For Me
TTITLE5=Safe With You At Home
TTITLE6=Not My Will
TTITLE7=My Best Friend
TTITLE8=The Forecast
TTITLE9=Small Piece Of clay
TTITLE10=He Called Me
TTITLE11=Chin Up, journey On
TTITLE12=In Your Rain (with Tammy Dunaway)
EXTD=
EXTT0=
EXTT1=
EXTT2=
EXTT3=
EXTT4=
EXTT5=
EXTT6=
EXTT7=
EXTT8=
EXTT9=
EXTT10=
EXTT11=
EXTT12=
PLAYORDER=
